<svg width="384" height="277" xmlns="http://www.w3.org/2000/svg">

 <g>
  <title>Layer 1</title>
  <path fill="#f53838" id="svg_1" d="m368,154.66797l-352,0c-8.83203,0 -16,-7.16797 -16,-16s7.16797,-16 16,-16l352,0c8.83203,0 16,7.16797 16,16s-7.16797,16 -16,16zm0,0"/>
  <path fill="#f53838" id="svg_2" d="m368,32l-352,0c-8.83203,0 -16,-7.16797 -16,-16s7.16797,-16 16,-16l352,0c8.83203,0 16,7.16797 16,16s-7.16797,16 -16,16zm0,0"/>
  <path fill="#f53838" id="svg_3" d="m368,277.33203l-352,0c-8.83203,0 -16,-7.16797 -16,-16s7.16797,-16 16,-16l352,0c8.83203,0 16,7.16797 16,16s-7.16797,16 -16,16zm0,0"/>
 </g>
</svg>