<svg width="34" height="34" xmlns="http://www.w3.org/2000/svg">

 <g>
  <title>background</title>
  <rect fill="none" id="canvas_background" height="36" width="36" y="-1" x="-1"/>
 </g>
 <g>
  <title>Layer 1</title>
  <g id="svg_1">
   <circle id="svg_2" fill="#F53838" r="10.43894" cy="17.381597" cx="16.991509"/>
  </g>
  <path id="svg_3" fill="white" d="m16.928921,0.206749c-9.278498,0 -16.799998,7.521532 -16.799998,16.800031c0,9.278496 7.521499,16.799997 16.799998,16.799997c9.2785,0 16.799999,-7.521502 16.799999,-16.799997c0,-9.278499 -7.5215,-16.800031 -16.799999,-16.800031zm3.9795,11.60953l-2.5252,0c-0.299297,0 -0.631798,0.3937 -0.631798,0.917l0,1.823502l3.158798,0l-0.477798,2.600497l-2.681,0l0,7.806698l-2.980201,0l0,-7.806698l-2.7038,0l0,-2.600497l2.7038,0l0,-1.529499c0,-2.1945 1.522498,-3.9778 3.611999,-3.9778l2.5252,0l0,2.766798z"/>
 </g>
</svg>