<svg width="34" height="34" xmlns="http://www.w3.org/2000/svg">

 <g>
  <title>background</title>
  <rect fill="none" id="canvas_background" height="36" width="36" y="-1" x="-1"/>
 </g>
 <g>
  <title>Layer 1</title>
  <g id="svg_1">
   <circle id="svg_2" fill="#F53838" r="13.228495" cy="15.416262" cx="16.54775"/>
  </g>
  <path id="svg_3" fill="white" d="m22.273937,17.023495c0,1.392401 -0.5532,2.727699 -1.537701,3.712299c-0.9846,0.984501 -2.32,1.537701 -3.712299,1.537701c-1.392398,0 -2.727798,-0.5532 -3.712399,-1.537701c-0.984499,-0.9846 -1.5376,-2.319899 -1.5376,-3.712299c0,-0.299299 0.0315,-0.591499 0.085699,-0.875l-1.835699,0l0,6.994699c0,0.4865 0.3937,0.880301 0.880199,0.880301l12.241298,0c0.233101,-0.0005 0.4566,-0.093399 0.621304,-0.258499c0.1647,-0.165001 0.257198,-0.388601 0.257198,-0.621801l0,-6.994699l-1.8358,0c0.054298,0.283501 0.0858,0.575701 0.0858,0.875zm-5.25,3.5c0.459702,-0.000099 0.914902,-0.090799 1.3396,-0.266899c0.424702,-0.176001 0.8106,-0.434 1.135601,-0.7591c0.325001,-0.325201 0.582798,-0.711201 0.758598,-1.136002c0.1758,-0.424799 0.2663,-0.879999 0.266201,-1.3398c-0.000198,-0.4597 -0.090801,-0.9149 -0.266899,-1.3396c-0.176003,-0.4247 -0.434002,-0.8106 -0.759102,-1.135599c-0.325199,-0.325001 -0.711201,-0.5828 -1.135998,-0.7586c-0.424801,-0.1759 -0.8801,-0.2663 -1.339802,-0.266201c-0.928501,0.000301 -1.8189,0.369301 -2.4752,1.026001c-0.656399,0.6567 -1.025,1.5473 -1.024799,2.4758c0.0002,0.928499 0.369301,1.8188 1.026001,2.475201c0.6567,0.656399 1.547297,1.025 2.475799,1.024799zm4.200001,-7.174999l2.098198,0c0.1394,0 0.273102,-0.055302 0.371902,-0.1537c0.098698,-0.0984 0.1544,-0.231901 0.1549,-0.371302l0,-2.098298c0,-0.1397 -0.0555,-0.2737 -0.154301,-0.3725c-0.098801,-0.0987 -0.2328,-0.1542 -0.372501,-0.1542l-2.098198,0c-0.139702,0 -0.273701,0.0555 -0.372501,0.1542c-0.098801,0.098801 -0.154301,0.2328 -0.154301,0.3725l0,2.098298c0.001801,0.2887 0.238003,0.525002 0.526802,0.525002zm-4.200001,-13.12503c-4.455699,0 -8.728799,1.76999 -11.879399,4.92063c-3.1507,3.1506 -4.920599,7.423699 -4.920599,11.879399c0,4.455601 1.769899,8.7288 4.920599,11.879398c3.1506,3.1506 7.4237,4.920601 11.879399,4.920601c2.2062,0 4.3908,-0.434601 6.429001,-1.2789c2.0383,-0.8442 3.890301,-2.081699 5.450397,-3.641701c1.560001,-1.560097 2.797501,-3.412098 3.641701,-5.450298c0.844299,-2.0383 1.2789,-4.2229 1.2789,-6.4291c0,-2.2062 -0.434601,-4.3908 -1.2789,-6.429099c-0.8442,-2.0383 -2.081699,-3.8903 -3.641701,-5.4503c-1.560097,-1.56005 -3.412098,-2.79753 -5.450397,-3.64181c-2.0382,-0.84428 -4.222801,-1.27882 -6.429001,-1.27882zm8.75,23.605729c0,1.0693 -0.875,1.9443 -1.944302,1.9443l-13.611497,0c-1.069201,0 -1.944201,-0.875 -1.944201,-1.9443l0,-13.6115c0,-1.0692 0.875,-1.9442 1.944201,-1.9442l13.611497,0c1.069302,0 1.944302,0.875 1.944302,1.9442l0,13.6115z"/>
 </g>
</svg>