<svg width="61" height="61" xmlns="http://www.w3.org/2000/svg">

 <g>
  <title>background</title>
  <rect fill="none" id="canvas_background" height="63" width="63" y="-1" x="-1"/>
 </g>
 <g>
  <title>Layer 1</title>
  <g id="svg_1">
   <circle id="svg_2" fill="#F53838" r="29.999985" cy="30.591346" cx="30.28938"/>
   <polyline stroke-linecap="round" id="svg_5" points="-58.77376243472099,-19.49006825685501 -58.89003440737724,-19.49006825685501 -58.89003440737724,-19.37379628419876 -58.65749046206474,-19.25752431154251 -58.30865928530693,-19.14124470949173 -58.07611533999443,-19.14124470949173 -57.84357139468193,-19.14124470949173 -57.49474021792412,-19.14124470949173 -57.26219627261162,-19.14124470949173 -56.913365095853806,-19.14124470949173 -56.797093123197556,-19.14124470949173 -56.564549177885056,-19.14124470949173 -56.21571800112724,-19.14124470949173 -56.09944602847099,-19.14124470949173 -55.98317405581474,-19.14124470949173 -55.86690208315849,-19.14124470949173 -55.75063011050224,-19.14124470949173 -55.63435813784599,-19.02497273683548 -55.40179893374443,-18.90870076417923 -55.169258803129196,-18.79242116212845 -54.82042381167412,-18.6761491894722 -54.58787986636162,-18.55987721681595 -54.35533592104912,-18.55987721681595 -54.122776716947556,-18.55987721681595 -53.657688826322556,-18.443597614765167 -53.30885764956474,-18.443597614765167 -53.19258567690849,-18.443597614765167 " opacity="0.5" stroke-width="null" fill="none"/>
   <polyline stroke-linecap="round" id="svg_6" points="-52.37866660952568,-18.443597614765167 -52.26239463686943,-18.443597614765167 -52.26239463686943,-18.55987721681595 -52.26239463686943,-18.90870076417923 -52.26239463686943,-19.02497273683548 " opacity="0.5" stroke-width="null" fill="none"/>
   <polyline stroke-linecap="round" id="svg_7" points="-54.58787986636162,-26.699081242084503 -54.58787986636162,-26.582809269428253 -54.47160789370537,-26.00143414735794 -54.23906394839287,-25.53633862733841 -53.890232771635056,-25.071243107318878 -53.541416853666306,-24.606139957904816 -53.07631370425224,-24.024772465229034 -52.84376975893974,-23.792220890522003 -52.61121055483818,-23.559669315814972 -52.49493858218193,-23.327125370502472 -52.26239463686943,-23.21084576845169 -52.26239463686943,-23.094575703144073 -52.14612266421318,-23.094575703144073 " opacity="0.5" stroke-width="null" fill="none"/>
  </g>
  <path id="svg_4" fill="white" d="m21.748354,29.251053l14.824999,0l-4.537498,-5.450001c-0.212196,-0.255302 -0.314301,-0.584404 -0.283798,-0.914894c0.030502,-0.330505 0.191002,-0.635406 0.446297,-0.847603c0.255302,-0.212196 0.584404,-0.314201 0.914902,-0.283806c0.330498,0.030502 0.635399,0.19101 0.847603,0.446304l6.25,7.499996c0.042,0.0597 0.079697,0.122299 0.112495,0.1875c0,0.0625 0,0.099998 0.087502,0.162498c0.056702,0.143303 0.086304,0.295906 0.087502,0.450005c-0.001198,0.154099 -0.0308,0.306702 -0.087502,0.449997c0,0.0625 0,0.099998 -0.087502,0.162498c-0.032799,0.065201 -0.070496,0.127907 -0.112495,0.1875l-6.25,7.500008c-0.1175,0.141098 -0.264702,0.254601 -0.431099,0.332397c-0.166306,0.077698 -0.347801,0.117897 -0.531403,0.117599c-0.292099,0.000603 -0.575104,-0.101097 -0.800003,-0.287498c-0.126595,-0.104904 -0.231194,-0.233803 -0.307899,-0.379204c-0.076698,-0.1455 -0.123894,-0.304596 -0.139,-0.4683c-0.015099,-0.163696 0.002205,-0.328793 0.051003,-0.48579c0.048798,-0.157005 0.128098,-0.302902 0.233398,-0.429199l4.537498,-5.450008l-14.824999,0c-0.331497,0 -0.649498,-0.131699 -0.883904,-0.366104c-0.234398,-0.234398 -0.366096,-0.552399 -0.366096,-0.883896c0,-0.331505 0.131699,-0.649506 0.366096,-0.883904c0.234406,-0.234398 0.552406,-0.366096 0.883904,-0.366096z"/>
 </g>
</svg>