<svg width="34" height="34" xmlns="http://www.w3.org/2000/svg">

 <g>
  <title>background</title>
  <rect fill="none" id="canvas_background" height="36" width="36" y="-1" x="-1"/>
 </g>
 <g>
  <title>Layer 1</title>
  <g id="svg_1">
   <circle id="svg_2" fill="#F53838" r="12.932676" cy="15.644058" cx="20.305377"/>
  </g>
  <path id="svg_3" fill="white" d="m16.937159,0.091616c-9.278504,0 -16.800003,7.52153 -16.800003,16.80003c0,9.278503 7.521499,16.800005 16.800003,16.800005c9.2785,0 16.800001,-7.521502 16.800001,-16.800005c0,-9.2785 -7.521502,-16.80003 -16.800001,-16.80003zm6.833698,13.76203c0.007,0.143499 0.008801,0.287001 0.008801,0.427c0,4.375 -3.326801,9.416702 -9.413301,9.416702c-1.7985,0.002998 -3.559502,-0.5135 -5.071501,-1.487503c0.257299,0.031502 0.5215,0.0438 0.789301,0.0438c1.550499,0 2.9767,-0.526798 4.108997,-1.415798c-0.689999,-0.0135 -1.358599,-0.242001 -1.912598,-0.653599c-0.554001,-0.411499 -0.9657,-0.985703 -1.1779,-1.642403c0.495501,0.0942 1.006001,0.074501 1.492701,-0.057697c-0.748901,-0.151501 -1.422401,-0.557301 -1.9062,-1.148602c-0.4839,-0.5914 -0.748301,-1.331902 -0.748501,-2.095901l0,-0.0403c0.446201,0.246801 0.957201,0.397301 1.499701,0.414801c-0.702101,-0.4674 -1.1991,-1.1854 -1.3894,-2.007c-0.1903,-0.821699 -0.0595,-1.685101 0.3657,-2.4135c0.8311,1.021999 1.867701,1.858 3.042501,2.454c1.174803,0.595999 2.461599,0.938599 3.777201,1.005699c-0.167198,-0.7099 -0.0952,-1.455299 0.2048,-2.1201c0.299999,-0.664799 0.811302,-1.211899 1.454399,-1.5562c0.643002,-0.3442 1.381802,-0.466398 2.101402,-0.3475c0.719601,0.1189 1.379799,0.4722 1.877899,1.0051c0.740601,-0.1465 1.450699,-0.4182 2.099998,-0.803301c-0.246799,0.7668 -0.7635,1.417801 -1.454197,1.8323c0.655998,-0.078999 1.296497,-0.2554 1.900497,-0.5233c-0.443699,0.664801 -1.002499,1.245001 -1.650299,1.713301z"/>
 </g>
</svg>